<?xml version="1.0" standalone="no"?>
<!DOCTYPE svg PUBLIC "-//W3C//DTD SVG 20010904//EN"
 "http://www.w3.org/TR/2001/REC-SVG-20010904/DTD/svg10.dtd">
<svg version="1.0" xmlns="http://www.w3.org/2000/svg"
 width="512.000000pt" height="512.000000pt" viewBox="0 0 512.000000 512.000000"
 preserveAspectRatio="xMidYMid meet">
<metadata>
Created by potrace 1.14, written by Peter Selinger 2001-2017
</metadata>
<g transform="translate(0.000000,512.000000) scale(0.100000,-0.100000)"
fill="#000000" stroke="none">
<path d="M390 5104 c-30 -8 -80 -26 -110 -41 -72 -35 -188 -151 -223 -223 -61
-126 -57 23 -57 -2280 0 -2303 -4 -2154 57 -2280 35 -72 151 -188 223 -223
126 -61 -23 -57 2280 -57 2303 0 2154 -4 2280 57 72 35 188 151 223 223 61
126 57 -23 57 2280 0 2303 4 2154 -57 2280 -35 72 -151 188 -223 223 -127 61
23 57 -2285 56 -1816 0 -2118 -2 -2165 -15z m4141 -313 c292 -76 445 -268 465
-582 20 -290 -140 -519 -426 -613 l-102 -33 124 -106 c306 -262 430 -466 469
-773 32 -260 -33 -502 -192 -713 -247 -328 -736 -533 -1194 -500 -278 19 -480
107 -634 275 -57 62 -141 206 -141 240 0 24 -15 16 -112 -56 -89 -68 -380
-223 -576 -308 -40 -17 -74 -37 -76 -44 -37 -137 -57 -198 -108 -328 -129
-330 -223 -492 -373 -648 -195 -203 -400 -296 -680 -309 -223 -10 -429 32
-605 123 -191 99 -286 234 -310 444 -19 167 40 262 245 396 183 119 413 222
905 403 l215 79 17 108 c10 60 29 181 44 269 67 422 133 732 226 1070 70 258
177 603 247 800 34 94 61 173 61 177 0 12 -109 64 -185 88 -152 48 -432 22
-845 -80 -332 -82 -420 -83 -451 -3 -52 137 333 389 738 483 369 87 893 59
1137 -59 96 -46 178 -125 195 -187 40 -144 -44 -705 -279 -1868 -55 -270 -98
-491 -96 -493 10 -10 346 147 467 218 112 67 147 102 154 157 18 129 74 273
159 406 56 88 168 199 238 237 56 29 74 34 153 37 77 3 95 0 122 -17 18 -11
35 -32 39 -47 10 -40 -12 -194 -47 -329 -29 -107 -32 -135 -32 -265 -1 -164
10 -211 70 -292 68 -94 202 -127 385 -95 113 20 185 53 254 119 91 86 134 196
134 342 0 189 -91 343 -343 578 -306 287 -390 385 -467 551 -59 127 -74 201
-74 352 1 256 77 446 240 594 121 110 251 176 425 216 90 21 318 13 420 -14z"/>
<path d="M4163 4375 c-76 -21 -128 -50 -172 -96 l-39 -39 14 -48 c41 -140 153
-309 301 -455 l69 -68 70 85 c117 142 174 280 174 422 0 94 -21 127 -114 173
-60 30 -80 34 -160 37 -60 3 -109 -1 -143 -11z"/>
<path d="M1030 1186 c-325 -112 -427 -157 -482 -210 -43 -42 -53 -79 -38 -135
15 -58 61 -105 141 -145 142 -71 296 -83 386 -30 54 31 130 130 183 239 49
101 134 386 113 384 -4 0 -141 -46 -303 -103z"/>
</g>
</svg>
